<?xml version="1.0"?>
<svg version="1.1" xmlns="http://www.w3.org/2000/svg" width="125" height="120" style=""><path fill="#1fa2ff" d="M17.978515625,75.478515625q0-2.880859375,0.3173828125-6.982421875t1.171875-8.544921875t2.294921875-8.837890625t3.6865234375-7.763671875t5.37109375-5.322265625q2.587890625-1.611328125,5.95703125-1.611328125q0.68359375,0,1.416015625,0.09765625q8.49609375,0.78125,13.0615234375,3.8818359375t6.6650390625,7.861328125t2.44140625,10.83984375t0.341796875,12.8173828125q0,5.419921875-1.0009765625,11.7919921875t-3.5400390625,11.8896484375t-7.0068359375,9.2041015625t-11.3525390625,3.6865234375q-4.19921875,0-7.3486328125-1.5380859375t-5.3466796875-4.1015625t-3.61328125-5.95703125t-2.1484375-7.03125t-1.0498046875-7.3486328125t-0.3173828125-7.03125z M27.890625,73.28125q0,2.099609375,0.048828125,5.1513671875t0.4150390625,6.4208984375t0.9521484375,6.7138671875t1.7333984375,6.0791015625t2.9052734375,4.4921875t4.248046875,1.85546875l0.244140625,0q2.24609375,0,4.00390625-1.708984375q1.85546875-1.806640625,3.2958984375-4.345703125t2.490234375-5.3466796875t1.8798828125-4.8095703125l-0.1953125,0.439453125q1.416015625-4.4921875,1.904296875-9.2041015625t0.48828125-9.3017578125q0-2.197265625-0.29296875-5.2978515625t-0.9521484375-6.4697265625t-1.708984375-6.6650390625t-2.6611328125-5.7373046875t-3.759765625-3.7109375q-1.5625-0.927734375-3.466796875-0.9765625q-0.732421875,0-1.46484375,0.146484375q-2.490234375,0.48828125-4.248046875,2.44140625t-2.8564453125,4.8095703125t-1.6845703125,6.25t-0.9033203125,6.8359375t-0.3662109375,6.591796875t-0.048828125,5.3466796875z M49.912109375,88.3203125l0-0.09765625l0,0.09765625z"/><path fill="#96d0fa" d="M74.00732421875,79.6484375q0-0.56640625,0.048828125-1.19140625t0.087890625-1.171875l0.1171875-2.9296875q0.1953125-3.515625,0.478515625-6.9140625t0.478515625-6.875q0.1171875-1.9140625,0.17578125-3.759765625t0.17578125-3.759765625q-0.078125-0.15625-0.078125-0.21484375q0-0.2734375,0.205078125-0.4296875t0.478515625-0.263671875t0.576171875-0.146484375t0.458984375-0.0390625l0.44921875,0q0.60546875,0.078125,0.87890625,0.380859375t0.3515625,0.72265625t0.0390625,0.8984375t-0.0390625,0.888671875q0,2.83203125-0.13671875,5.771484375t-0.3125,5.8984375t-0.322265625,5.91796875t-0.146484375,5.849609375l0,1.3671875q0,0.91796875-0.517578125,1.2109375t-1.435546875,0.29296875q-0.80078125,0-1.40625-0.3515625t-0.60546875-1.15234375z M82.96572265625,72.24609375q0-1.796875,0.419921875-3.525390625t0.712890625-3.447265625q0.078125-0.44921875,0.615234375-0.556640625t0.908203125-0.107421875q0.64453125,0,1.03515625,0.1953125q0.15625,0.078125,0.29296875,0.17578125t0.13671875,0.25390625q0,1.6796875-0.400390625,3.28125t-0.400390625,3.3984375q0,0.60546875,0.087890625,1.142578125t0.166015625,1.064453125l0.1171875,0.56640625q0,0.15625,0.01953125,0.2734375t0.05859375,0.2734375q0,0.3515625-0.498046875,0.478515625t-0.869140625,0.126953125q-0.56640625,0-1.044921875-0.224609375t-0.751953125-0.771484375l-0.2734375-0.56640625q-0.234375-0.44921875-0.234375-1.005859375t-0.09765625-1.025390625z M84.21572265625,60.48828125l0-0.37109375q0-0.91796875,0.458984375-1.640625t1.376953125-0.72265625q0.1171875,0,0.224609375,0.01953125t0.224609375,0.01953125q0.234375,0.0390625,0.615234375,0.185546875t0.380859375,0.458984375l0,0.0390625q-0.078125,0.15625-0.09765625,0.322265625t-0.09765625,0.283203125l0.0390625-0.0390625q-0.234375,0.60546875-0.380859375,0.9765625t-0.322265625,0.595703125t-0.439453125,0.322265625t-0.751953125,0.09765625q-0.078125,0-0.2734375-0.01953125t-0.419921875-0.078125t-0.380859375-0.15625t-0.15625-0.29296875z M91.51396484375,72.8125l0-0.56640625q0-0.703125,0.0390625-1.328125q0.0390625-0.87890625,0.0390625-1.4453125q0-0.3125,0.0390625-0.712890625t0.1953125-0.634765625q0.1953125-0.1953125,0.458984375-0.400390625t0.576171875-0.205078125q0.99609375,0,1.5625,0.224609375t0.60546875,0.927734375l0.078125,0.60546875q0.3515625-0.83984375,0.9375-2.080078125t1.357421875-2.36328125t1.73828125-1.9140625t2.041015625-0.791015625q0.99609375,0,1.640625,0.9375t1.025390625,2.392578125t0.537109375,3.2421875t0.21484375,3.505859375t0.078125,3.134765625t0.13671875,2.138671875q0.078125,0.60546875,0.263671875,1.279296875t0.185546875,1.240234375q0,0.15625-0.224609375,0.302734375t-0.478515625,0.244140625t-0.517578125,0.15625t-0.380859375,0.05859375q-0.76171875,0-1.083984375-1.142578125t-0.400390625-2.861328125t-0.078125-3.720703125t-0.13671875-3.720703125t-0.556640625-2.861328125t-1.337890625-1.181640625q-0.83984375,0-1.73828125,1.083984375t-1.54296875,2.880859375q-0.625,1.796875-0.859375,4.08203125q-0.078125,0.72265625-0.078125,1.4453125q0,1.58203125,0.33203125,3.1640625q0.0390625,0.2734375-0.224609375,0.41015625t-0.654296875,0.21484375t-0.791015625,0.09765625t-0.615234375,0.01953125q-0.76171875,0-1.220703125-0.537109375t-0.712890625-1.376953125t-0.341796875-1.884765625t-0.107421875-2.060546875z"/></svg>
